<svg width="18" height="22" viewBox="0 0 18 22" fill="none" xmlns="http://www.w3.org/2000/svg">
<path fillRule="evenodd" clipRule="evenodd" d="M7.06017 3.88235V5.17646H2.53076C2.17487 5.17646 1.88371 5.46635 1.88371 5.82352V14.3544C2.08687 14.2819 2.30299 14.2353 2.53076 14.2353H15.4719C15.6997 14.2353 15.9158 14.2819 16.119 14.3543V5.82353C16.119 5.46637 15.8278 5.17648 15.4719 5.17648H10.9425V3.88235H15.4719C16.5422 3.88235 17.4131 4.75329 17.4131 5.82352V20.0588C17.4131 21.1291 16.5422 22 15.4719 22H2.53076C1.46052 22 0.589584 21.129 0.589584 20.0588V5.82352C0.589584 4.75329 1.46053 3.88235 2.53076 3.88235H7.06017ZM15.4719 15.5294H2.53076C2.17487 15.5294 1.88371 15.8193 1.88371 16.1765V20.0588C1.88371 20.416 2.17487 20.7059 2.53076 20.7059H15.4719C15.8278 20.7059 16.119 20.416 16.119 20.0588V16.1765C16.119 15.8193 15.8278 15.5294 15.4719 15.5294V15.5294ZM9.6488 -0.000267029V10.0848L12.47 7.26232L13.3849 8.17727L9.00174 12.5617L4.61727 8.17727L5.53222 7.26232L8.35467 10.0848V-0.00025557H9.64878L9.6488 -0.000267029ZM4.47194 16.8235C3.75758 16.8235 3.17782 17.4046 3.17782 18.1176C3.17782 18.8307 3.75758 19.4118 4.47194 19.4118C5.18629 19.4118 5.76605 18.8307 5.76605 18.1176C5.76605 17.4046 5.18629 16.8235 4.47194 16.8235Z" fill="#969FA9"/>
</svg>
