<svg width="328" height="233" viewBox="0 0 328 233" fill="none" xmlns="http://www.w3.org/2000/svg">
<circle cx="109.305" cy="123.293" r="69.3636" transform="rotate(-32.5804 109.305 123.293)" fill="white"/>
<g clip-path="url(#clip0_466_1080)">
<path d="M131.043 188.647C118.117 192.947 104.207 193.317 91.0708 189.71C77.9347 186.104 66.1631 178.683 57.2444 168.387C48.3258 158.09 42.6607 145.38 40.9655 131.864C39.2704 118.348 41.6213 104.633 47.721 92.4525C53.8207 80.2725 63.3953 70.1747 75.2339 63.4361C87.0726 56.6976 100.644 53.621 114.231 54.5953C127.818 55.5695 140.811 60.551 151.567 68.9098C162.323 77.2685 170.359 88.6291 174.658 101.555C180.403 118.888 179.037 137.792 170.86 154.12C162.683 170.447 148.364 182.865 131.043 188.647ZM89.7527 64.5129C78.127 68.3799 67.9091 75.6075 60.3911 85.2817C52.8732 94.9558 48.3927 106.642 47.5164 118.863C46.6401 131.083 49.4073 143.289 55.4681 153.937C61.5288 164.585 70.6109 173.196 81.5659 178.683C92.5209 184.169 104.857 186.283 117.013 184.759C129.17 183.234 140.602 178.139 149.862 170.117C159.123 162.095 165.798 151.508 169.041 139.693C172.285 127.878 171.952 115.367 168.085 103.741C162.884 88.163 151.716 75.2839 137.03 67.9296C122.345 60.5754 105.343 59.3466 89.7527 64.5129Z" fill="#713DDA"/>
<path d="M143.967 124.496C143.6 131.508 141.127 138.246 136.872 143.831C132.618 149.416 126.778 153.589 120.115 155.806C113.453 158.022 106.277 158.178 99.5245 156.254C92.7719 154.33 86.756 150.416 82.2618 145.021C79.335 141.687 74.7815 146.918 77.6931 150.228C83.1057 156.421 90.2271 160.877 98.1635 163.037C106.1 165.197 114.497 164.964 122.302 162.368C130.106 159.772 136.97 154.928 142.032 148.445C147.093 141.962 150.126 134.128 150.751 125.927C151.093 121.534 144.31 120.038 143.967 124.496Z" fill="#713DDA"/>
<path d="M85.7817 118.422C90.3197 116.912 92.7749 112.01 91.2654 107.471C89.7559 102.933 84.8534 100.478 80.3154 101.988C75.7773 103.497 73.3222 108.4 74.8316 112.938C76.3411 117.476 81.2436 119.931 85.7817 118.422Z" fill="#713DDA"/>
<path d="M125.223 105.302C129.761 103.793 132.216 98.8904 130.706 94.3523C129.197 89.8143 124.295 87.3591 119.756 88.8686C115.218 90.3781 112.763 95.2806 114.273 99.8186C115.782 104.357 120.685 106.812 125.223 105.302Z" fill="#713DDA"/>
</g>
<circle cx="218.539" cy="109.863" r="69.3636" transform="rotate(-32.5804 218.539 109.863)" fill="white"/>
<g clip-path="url(#clip1_466_1080)">
<path d="M240.278 175.217C227.352 179.516 213.442 179.886 200.305 176.28C187.169 172.673 175.398 165.253 166.479 154.956C157.56 144.66 151.895 131.95 150.2 118.434C148.505 104.917 150.856 91.2021 156.956 79.0221C163.055 66.842 172.63 56.7442 184.469 50.0057C196.307 43.2671 209.878 40.1905 223.465 41.1648C237.053 42.1391 250.046 47.1206 260.802 55.4793C271.558 63.838 279.594 75.1986 283.893 88.1244C289.637 105.458 288.271 124.362 280.095 140.689C271.918 157.017 257.598 169.434 240.278 175.217ZM198.987 51.0825C187.362 54.9495 177.144 62.177 169.626 71.8512C162.108 81.5254 157.627 93.2116 156.751 105.432C155.875 117.653 158.642 129.859 164.703 140.507C170.764 151.154 179.846 159.766 190.801 165.252C201.756 170.738 214.091 172.853 226.248 171.328C238.405 169.803 249.836 164.708 259.097 156.687C268.358 148.665 275.032 138.077 278.276 126.263C281.519 114.448 281.187 101.937 277.32 90.3109C272.119 74.7325 260.95 61.8534 246.265 54.4991C231.58 47.1449 214.577 45.9161 198.987 51.0825Z" fill="#713DDA"/>
<path d="M253.202 111.066C252.835 118.077 250.362 124.816 246.107 130.401C241.852 135.986 236.013 140.159 229.35 142.375C222.688 144.591 215.512 144.748 208.759 142.824C202.007 140.9 195.991 136.985 191.497 131.591C188.57 128.257 184.016 133.487 186.928 136.797C192.34 142.99 199.462 147.446 207.398 149.606C215.334 151.766 223.732 151.533 231.537 148.937C239.341 146.341 246.205 141.498 251.266 135.015C256.328 128.531 259.361 120.697 259.986 112.496C260.328 108.104 253.544 106.608 253.202 111.066Z" fill="#713DDA"/>
<path d="M195.016 104.991C199.554 103.482 202.01 98.579 200.5 94.041C198.991 89.5029 194.088 87.0478 189.55 88.5572C185.012 90.0667 182.557 94.9692 184.066 99.5073C185.576 104.045 190.478 106.501 195.016 104.991Z" fill="#713DDA"/>
<path d="M234.457 91.8719C238.996 90.3624 241.451 85.4599 239.941 80.9218C238.432 76.3838 233.529 73.9286 228.991 75.4381C224.453 76.9476 221.998 81.8501 223.507 86.3882C225.017 90.9262 229.919 93.3814 234.457 91.8719Z" fill="#713DDA"/>
</g>
<defs>
<clipPath id="clip0_466_1080">
<rect width="166.263" height="166.263" fill="white" transform="translate(4.18411 70.6495) rotate(-18.3985)"/>
</clipPath>
<clipPath id="clip1_466_1080">
<rect width="166.263" height="166.263" fill="white" transform="translate(113.419 57.219) rotate(-18.3985)"/>
</clipPath>
</defs>
</svg>
