<svg width="100" height="17" viewBox="0 0 100 17" fill="none" xmlns="http://www.w3.org/2000/svg">
<path d="M0.81543 0.359375H5.99316C7.16764 0.359375 8.15951 0.538411 8.96875 0.896484C9.78516 1.25456 10.4046 1.78451 10.8271 2.48633C11.2568 3.18099 11.4717 4.03678 11.4717 5.05371C11.4717 5.76986 11.3249 6.42513 11.0312 7.01953C10.7448 7.60677 10.3294 8.10807 9.78516 8.52344C9.24805 8.93164 8.60352 9.236 7.85156 9.43652L7.27148 9.66211H2.40527L2.38379 7.97559H6.05762C6.80241 7.97559 7.42188 7.84668 7.91602 7.58887C8.41016 7.32389 8.78255 6.9694 9.0332 6.52539C9.28385 6.08138 9.40918 5.59082 9.40918 5.05371C9.40918 4.45215 9.29102 3.92578 9.05469 3.47461C8.81836 3.02344 8.44596 2.67611 7.9375 2.43262C7.4362 2.18197 6.78809 2.05664 5.99316 2.05664H2.88867V16H0.81543V0.359375ZM9.95703 16L6.1543 8.91016L8.31348 8.89941L12.1699 15.8711V16H9.95703ZM21.1826 13.3145V4.37695H23.1807V16H21.2793L21.1826 13.3145ZM21.5586 10.8652L22.3857 10.8438C22.3857 11.6172 22.3034 12.3333 22.1387 12.9922C21.9811 13.6439 21.7233 14.2096 21.3652 14.6895C21.0072 15.1693 20.5381 15.5452 19.958 15.8174C19.3779 16.0824 18.6725 16.2148 17.8418 16.2148C17.276 16.2148 16.7568 16.1325 16.2842 15.9678C15.8187 15.8031 15.4176 15.5488 15.0811 15.2051C14.7445 14.8613 14.4831 14.4137 14.2969 13.8623C14.1178 13.3109 14.0283 12.6484 14.0283 11.875V4.37695H16.0156V11.8965C16.0156 12.4193 16.0729 12.8525 16.1875 13.1963C16.3092 13.5329 16.4704 13.8014 16.6709 14.002C16.8786 14.1953 17.1077 14.3314 17.3584 14.4102C17.6162 14.4889 17.8812 14.5283 18.1533 14.5283C18.9984 14.5283 19.668 14.3672 20.1621 14.0449C20.6562 13.7155 21.0107 13.2751 21.2256 12.7236C21.4476 12.165 21.5586 11.5456 21.5586 10.8652ZM28.1973 6.8584V16H26.21V4.37695H28.0898L28.1973 6.8584ZM27.7246 9.74805L26.8975 9.71582C26.9046 8.9209 27.0228 8.18685 27.252 7.51367C27.4811 6.83333 27.8034 6.24251 28.2188 5.74121C28.6341 5.23991 29.1283 4.85319 29.7012 4.58105C30.2812 4.30176 30.9222 4.16211 31.624 4.16211C32.1969 4.16211 32.7126 4.24089 33.1709 4.39844C33.6292 4.54883 34.0195 4.79232 34.3418 5.12891C34.6712 5.46549 34.9219 5.90234 35.0938 6.43945C35.2656 6.9694 35.3516 7.61751 35.3516 8.38379V16H33.3535V8.3623C33.3535 7.75358 33.264 7.2666 33.085 6.90137C32.9059 6.52897 32.6445 6.26042 32.3008 6.0957C31.957 5.92383 31.5345 5.83789 31.0332 5.83789C30.5391 5.83789 30.0879 5.94173 29.6797 6.14941C29.2786 6.3571 28.9313 6.64355 28.6377 7.00879C28.3512 7.37402 28.1257 7.79297 27.9609 8.26562C27.8034 8.73112 27.7246 9.22526 27.7246 9.74805ZM56.1592 0.359375V16H54.0752L46.2012 3.93652V16H44.1279V0.359375H46.2012L54.1074 12.4551V0.359375H56.1592ZM59.0059 10.3174V10.0703C59.0059 9.23242 59.1276 8.4554 59.3711 7.73926C59.6146 7.01595 59.9655 6.38932 60.4238 5.85938C60.8822 5.32227 61.4372 4.9069 62.0889 4.61328C62.7406 4.3125 63.471 4.16211 64.2803 4.16211C65.0967 4.16211 65.8307 4.3125 66.4824 4.61328C67.1413 4.9069 67.6999 5.32227 68.1582 5.85938C68.6237 6.38932 68.9782 7.01595 69.2217 7.73926C69.4652 8.4554 69.5869 9.23242 69.5869 10.0703V10.3174C69.5869 11.1553 69.4652 11.9323 69.2217 12.6484C68.9782 13.3646 68.6237 13.9912 68.1582 14.5283C67.6999 15.0583 67.1449 15.4736 66.4932 15.7744C65.8486 16.068 65.1182 16.2148 64.3018 16.2148C63.4854 16.2148 62.7513 16.068 62.0996 15.7744C61.4479 15.4736 60.8893 15.0583 60.4238 14.5283C59.9655 13.9912 59.6146 13.3646 59.3711 12.6484C59.1276 11.9323 59.0059 11.1553 59.0059 10.3174ZM60.9932 10.0703V10.3174C60.9932 10.8975 61.0612 11.4453 61.1973 11.9609C61.3333 12.4694 61.5374 12.9206 61.8096 13.3145C62.0889 13.7083 62.4362 14.0199 62.8516 14.249C63.2669 14.471 63.7503 14.582 64.3018 14.582C64.846 14.582 65.3223 14.471 65.7305 14.249C66.1458 14.0199 66.4896 13.7083 66.7617 13.3145C67.0339 12.9206 67.238 12.4694 67.374 11.9609C67.5173 11.4453 67.5889 10.8975 67.5889 10.3174V10.0703C67.5889 9.4974 67.5173 8.95671 67.374 8.44824C67.238 7.93262 67.0303 7.47786 66.751 7.08398C66.4788 6.68294 66.1351 6.36784 65.7197 6.13867C65.3115 5.90951 64.8317 5.79492 64.2803 5.79492C63.736 5.79492 63.2562 5.90951 62.8408 6.13867C62.4326 6.36784 62.0889 6.68294 61.8096 7.08398C61.5374 7.47786 61.3333 7.93262 61.1973 8.44824C61.0612 8.95671 60.9932 9.4974 60.9932 10.0703ZM76.9453 4.37695V5.90234H70.6611V4.37695H76.9453ZM72.7881 1.55176H74.7754V13.1211C74.7754 13.515 74.8363 13.8122 74.958 14.0127C75.0798 14.2132 75.2373 14.3457 75.4307 14.4102C75.624 14.4746 75.8317 14.5068 76.0537 14.5068C76.2184 14.5068 76.3903 14.4925 76.5693 14.4639C76.7555 14.4281 76.8952 14.3994 76.9883 14.3779L76.999 16C76.8415 16.0501 76.6338 16.0967 76.376 16.1396C76.1253 16.1898 75.821 16.2148 75.4629 16.2148C74.9759 16.2148 74.5283 16.1182 74.1201 15.9248C73.7119 15.7314 73.3861 15.4092 73.1426 14.958C72.9062 14.4997 72.7881 13.8838 72.7881 13.1104V1.55176ZM84.0996 16.2148C83.2904 16.2148 82.5563 16.0788 81.8975 15.8066C81.2458 15.5273 80.6836 15.137 80.2109 14.6357C79.7454 14.1344 79.3874 13.54 79.1367 12.8525C78.8861 12.165 78.7607 11.4131 78.7607 10.5967V10.1455C78.7607 9.2002 78.9004 8.35872 79.1797 7.62109C79.459 6.8763 79.8385 6.24609 80.3184 5.73047C80.7982 5.21484 81.3424 4.82454 81.9512 4.55957C82.5599 4.2946 83.1901 4.16211 83.8418 4.16211C84.6725 4.16211 85.3887 4.30534 85.9902 4.5918C86.599 4.87826 87.0967 5.2793 87.4834 5.79492C87.8701 6.30339 88.1566 6.90495 88.3428 7.59961C88.529 8.28711 88.6221 9.03906 88.6221 9.85547V10.7471H79.9424V9.125H86.6348V8.97461C86.6061 8.45898 86.4987 7.95768 86.3125 7.4707C86.1335 6.98372 85.847 6.58268 85.4531 6.26758C85.0592 5.95247 84.5221 5.79492 83.8418 5.79492C83.3906 5.79492 82.9753 5.8916 82.5957 6.08496C82.2161 6.27116 81.8903 6.55046 81.6182 6.92285C81.346 7.29525 81.1348 7.75 80.9844 8.28711C80.834 8.82422 80.7588 9.44368 80.7588 10.1455V10.5967C80.7588 11.1481 80.834 11.6673 80.9844 12.1543C81.1419 12.6341 81.3675 13.0566 81.6611 13.4219C81.9619 13.7871 82.3236 14.0736 82.7461 14.2812C83.1758 14.4889 83.6628 14.5928 84.207 14.5928C84.9089 14.5928 85.5033 14.4495 85.9902 14.1631C86.4772 13.8766 86.9033 13.4935 87.2686 13.0137L88.4717 13.9697C88.221 14.3493 87.9023 14.7109 87.5156 15.0547C87.1289 15.3984 86.6527 15.6777 86.0869 15.8926C85.5283 16.1074 84.8659 16.2148 84.0996 16.2148ZM97.71 12.917C97.71 12.6305 97.6455 12.3656 97.5166 12.1221C97.3949 11.8714 97.1406 11.6458 96.7539 11.4453C96.3743 11.2376 95.8014 11.0586 95.0352 10.9082C94.3906 10.7721 93.807 10.611 93.2842 10.4248C92.7686 10.2386 92.3281 10.013 91.9629 9.74805C91.6048 9.48307 91.3291 9.17155 91.1357 8.81348C90.9424 8.4554 90.8457 8.03646 90.8457 7.55664C90.8457 7.09831 90.946 6.66504 91.1465 6.25684C91.3542 5.84863 91.6442 5.48698 92.0166 5.17188C92.3962 4.85677 92.8509 4.6097 93.3809 4.43066C93.9108 4.25163 94.5016 4.16211 95.1533 4.16211C96.0843 4.16211 96.8792 4.32682 97.5381 4.65625C98.1969 4.98568 98.7018 5.42611 99.0527 5.97754C99.4036 6.52181 99.5791 7.12695 99.5791 7.79297H97.5918C97.5918 7.4707 97.4951 7.15918 97.3018 6.8584C97.1156 6.55046 96.8398 6.29622 96.4746 6.0957C96.1165 5.89518 95.6761 5.79492 95.1533 5.79492C94.6019 5.79492 94.1543 5.88086 93.8105 6.05273C93.474 6.21745 93.2269 6.42871 93.0693 6.68652C92.9189 6.94434 92.8438 7.21647 92.8438 7.50293C92.8438 7.71777 92.8796 7.91113 92.9512 8.08301C93.0299 8.24772 93.166 8.40169 93.3594 8.54492C93.5527 8.68099 93.8249 8.8099 94.1758 8.93164C94.5267 9.05339 94.9743 9.17513 95.5186 9.29688C96.471 9.51172 97.2552 9.76953 97.8711 10.0703C98.487 10.3711 98.9453 10.7399 99.2461 11.1768C99.5469 11.6136 99.6973 12.1436 99.6973 12.7666C99.6973 13.2751 99.5898 13.7406 99.375 14.1631C99.1673 14.5856 98.863 14.9508 98.4619 15.2588C98.068 15.5596 97.5954 15.7959 97.0439 15.9678C96.4997 16.1325 95.8874 16.2148 95.207 16.2148C94.1829 16.2148 93.3164 16.0322 92.6074 15.667C91.8984 15.3018 91.3613 14.8291 90.9961 14.249C90.6309 13.6689 90.4482 13.0566 90.4482 12.4121H92.4463C92.4749 12.9564 92.6325 13.3896 92.9189 13.7119C93.2054 14.027 93.5563 14.2526 93.9717 14.3887C94.387 14.5176 94.7988 14.582 95.207 14.582C95.7513 14.582 96.2061 14.5104 96.5713 14.3672C96.9437 14.224 97.2266 14.027 97.4199 13.7764C97.6133 13.5257 97.71 13.2393 97.71 12.917Z" fill="white"/>
</svg>
