<svg width="144" height="22" viewBox="0 0 144 22" fill="none" xmlns="http://www.w3.org/2000/svg">
<path d="M10.1514 13.0469C10.1514 12.6816 10.0941 12.3594 9.97949 12.0801C9.87207 11.7936 9.67871 11.5358 9.39941 11.3066C9.12728 11.0775 8.74772 10.859 8.26074 10.6514C7.78092 10.4437 7.1722 10.2324 6.43457 10.0176C5.66113 9.78841 4.96289 9.53418 4.33984 9.25488C3.7168 8.96842 3.18327 8.64258 2.73926 8.27734C2.29525 7.91211 1.95508 7.49316 1.71875 7.02051C1.48242 6.54785 1.36426 6.00716 1.36426 5.39844C1.36426 4.78971 1.48958 4.22754 1.74023 3.71191C1.99089 3.19629 2.34896 2.7487 2.81445 2.36914C3.28711 1.98242 3.84928 1.68164 4.50098 1.4668C5.15267 1.25195 5.87956 1.14453 6.68164 1.14453C7.85612 1.14453 8.85156 1.37012 9.66797 1.82129C10.4915 2.2653 11.1182 2.84896 11.5479 3.57227C11.9775 4.28841 12.1924 5.05469 12.1924 5.87109H10.1299C10.1299 5.28385 10.0046 4.76465 9.75391 4.31348C9.50326 3.85514 9.1237 3.49707 8.61523 3.23926C8.10677 2.97428 7.46224 2.8418 6.68164 2.8418C5.94401 2.8418 5.33529 2.9528 4.85547 3.1748C4.37565 3.39681 4.01758 3.69759 3.78125 4.07715C3.55208 4.45671 3.4375 4.88997 3.4375 5.37695C3.4375 5.70638 3.50553 6.00716 3.6416 6.2793C3.78483 6.54427 4.00326 6.79134 4.29688 7.02051C4.59766 7.24967 4.97721 7.46094 5.43555 7.6543C5.90104 7.84766 6.45605 8.03385 7.10059 8.21289C7.98861 8.46354 8.75488 8.74284 9.39941 9.05078C10.0439 9.35872 10.5739 9.70605 10.9893 10.0928C11.4118 10.4723 11.7233 10.9056 11.9238 11.3926C12.1315 11.8724 12.2354 12.4167 12.2354 13.0254C12.2354 13.6628 12.1064 14.2393 11.8486 14.7549C11.5908 15.2705 11.222 15.7109 10.7422 16.0762C10.2624 16.4414 9.68587 16.7243 9.0127 16.9248C8.34668 17.1182 7.60189 17.2148 6.77832 17.2148C6.05501 17.2148 5.34245 17.1146 4.64062 16.9141C3.94596 16.7135 3.31217 16.4128 2.73926 16.0117C2.1735 15.6107 1.71875 15.1165 1.375 14.5293C1.03841 13.9349 0.870117 13.2474 0.870117 12.4668H2.93262C2.93262 13.0039 3.03646 13.4658 3.24414 13.8525C3.45182 14.2321 3.7347 14.5472 4.09277 14.7979C4.45801 15.0485 4.86979 15.2347 5.32812 15.3564C5.79362 15.471 6.27702 15.5283 6.77832 15.5283C7.50163 15.5283 8.11393 15.4281 8.61523 15.2275C9.11654 15.027 9.49609 14.7406 9.75391 14.3682C10.0189 13.9958 10.1514 13.5553 10.1514 13.0469ZM21.4307 15.0127V9.0293C21.4307 8.57096 21.3376 8.1735 21.1514 7.83691C20.9723 7.49316 20.7002 7.22819 20.335 7.04199C19.9697 6.85579 19.5186 6.7627 18.9814 6.7627C18.4801 6.7627 18.0397 6.84863 17.6602 7.02051C17.2878 7.19238 16.9941 7.41797 16.7793 7.69727C16.5716 7.97656 16.4678 8.27734 16.4678 8.59961H14.4805C14.4805 8.18424 14.5879 7.77246 14.8027 7.36426C15.0176 6.95605 15.3255 6.58724 15.7266 6.25781C16.1348 5.92122 16.6217 5.65625 17.1875 5.46289C17.7604 5.26237 18.3978 5.16211 19.0996 5.16211C19.9447 5.16211 20.6895 5.30534 21.334 5.5918C21.9857 5.87826 22.4941 6.31152 22.8594 6.8916C23.2318 7.46452 23.418 8.18424 23.418 9.05078V14.4648C23.418 14.8516 23.4502 15.2633 23.5146 15.7002C23.5863 16.137 23.6901 16.513 23.8262 16.8281V17H21.7529C21.6527 16.7708 21.5739 16.4665 21.5166 16.0869C21.4593 15.7002 21.4307 15.3421 21.4307 15.0127ZM21.7744 9.95312L21.7959 11.3496H19.7871C19.2214 11.3496 18.7165 11.3962 18.2725 11.4893C17.8285 11.5752 17.4561 11.7077 17.1553 11.8867C16.8545 12.0658 16.6253 12.2913 16.4678 12.5635C16.3102 12.8285 16.2314 13.14 16.2314 13.498C16.2314 13.8633 16.3138 14.1963 16.4785 14.4971C16.6432 14.7979 16.8903 15.0378 17.2197 15.2168C17.5563 15.3887 17.9681 15.4746 18.4551 15.4746C19.0638 15.4746 19.6009 15.3457 20.0664 15.0879C20.5319 14.8301 20.9007 14.515 21.1729 14.1426C21.4521 13.7702 21.6025 13.4085 21.624 13.0576L22.4727 14.0137C22.4225 14.3145 22.2865 14.6475 22.0645 15.0127C21.8424 15.3779 21.5452 15.7288 21.1729 16.0654C20.8076 16.3949 20.3708 16.6706 19.8623 16.8926C19.361 17.1074 18.7952 17.2148 18.165 17.2148C17.3773 17.2148 16.6862 17.0609 16.0918 16.7529C15.5046 16.445 15.0462 16.0332 14.7168 15.5176C14.3945 14.9948 14.2334 14.4111 14.2334 13.7666C14.2334 13.1436 14.3551 12.5957 14.5986 12.123C14.8421 11.6432 15.193 11.2458 15.6514 10.9307C16.1097 10.6084 16.6611 10.3649 17.3057 10.2002C17.9502 10.0355 18.6699 9.95312 19.4648 9.95312H21.7744ZM29.9062 15.2061L33.0859 5.37695H35.1162L30.9375 17H29.6055L29.9062 15.2061ZM27.2529 5.37695L30.5293 15.2598L30.7549 17H29.4229L25.2119 5.37695H27.2529ZM41.7012 17.2148C40.8919 17.2148 40.1579 17.0788 39.499 16.8066C38.8473 16.5273 38.2852 16.137 37.8125 15.6357C37.347 15.1344 36.9889 14.54 36.7383 13.8525C36.4876 13.165 36.3623 12.4131 36.3623 11.5967V11.1455C36.3623 10.2002 36.502 9.35872 36.7812 8.62109C37.0605 7.8763 37.4401 7.24609 37.9199 6.73047C38.3997 6.21484 38.944 5.82454 39.5527 5.55957C40.1615 5.2946 40.7917 5.16211 41.4434 5.16211C42.2741 5.16211 42.9902 5.30534 43.5918 5.5918C44.2005 5.87826 44.6982 6.2793 45.085 6.79492C45.4717 7.30339 45.7581 7.90495 45.9443 8.59961C46.1305 9.28711 46.2236 10.0391 46.2236 10.8555V11.7471H37.5439V10.125H44.2363V9.97461C44.2077 9.45898 44.1003 8.95768 43.9141 8.4707C43.735 7.98372 43.4486 7.58268 43.0547 7.26758C42.6608 6.95247 42.1237 6.79492 41.4434 6.79492C40.9922 6.79492 40.5768 6.8916 40.1973 7.08496C39.8177 7.27116 39.4919 7.55046 39.2197 7.92285C38.9476 8.29525 38.7363 8.75 38.5859 9.28711C38.4355 9.82422 38.3604 10.4437 38.3604 11.1455V11.5967C38.3604 12.1481 38.4355 12.6673 38.5859 13.1543C38.7435 13.6341 38.9691 14.0566 39.2627 14.4219C39.5635 14.7871 39.9251 15.0736 40.3477 15.2812C40.7773 15.4889 41.2643 15.5928 41.8086 15.5928C42.5104 15.5928 43.1048 15.4495 43.5918 15.1631C44.0788 14.8766 44.5049 14.4935 44.8701 14.0137L46.0732 14.9697C45.8226 15.3493 45.5039 15.7109 45.1172 16.0547C44.7305 16.3984 44.2542 16.6777 43.6885 16.8926C43.1299 17.1074 42.4674 17.2148 41.7012 17.2148ZM58.8672 5.37695V6.90234H52.583V5.37695H58.8672ZM54.71 2.55176H56.6973V14.1211C56.6973 14.515 56.7581 14.8122 56.8799 15.0127C57.0016 15.2132 57.1592 15.3457 57.3525 15.4102C57.5459 15.4746 57.7536 15.5068 57.9756 15.5068C58.1403 15.5068 58.3122 15.4925 58.4912 15.4639C58.6774 15.4281 58.8171 15.3994 58.9102 15.3779L58.9209 17C58.7633 17.0501 58.5557 17.0967 58.2979 17.1396C58.0472 17.1898 57.7428 17.2148 57.3848 17.2148C56.8978 17.2148 56.4502 17.1182 56.042 16.9248C55.6338 16.7314 55.3079 16.4092 55.0645 15.958C54.8281 15.4997 54.71 14.8838 54.71 14.1104V2.55176ZM60.457 11.3174V11.0703C60.457 10.2324 60.5788 9.4554 60.8223 8.73926C61.0658 8.01595 61.4167 7.38932 61.875 6.85938C62.3333 6.32227 62.8883 5.9069 63.54 5.61328C64.1917 5.3125 64.9222 5.16211 65.7314 5.16211C66.5479 5.16211 67.2819 5.3125 67.9336 5.61328C68.5924 5.9069 69.151 6.32227 69.6094 6.85938C70.0749 7.38932 70.4294 8.01595 70.6729 8.73926C70.9163 9.4554 71.0381 10.2324 71.0381 11.0703V11.3174C71.0381 12.1553 70.9163 12.9323 70.6729 13.6484C70.4294 14.3646 70.0749 14.9912 69.6094 15.5283C69.151 16.0583 68.596 16.4736 67.9443 16.7744C67.2998 17.068 66.5693 17.2148 65.7529 17.2148C64.9365 17.2148 64.2025 17.068 63.5508 16.7744C62.8991 16.4736 62.3405 16.0583 61.875 15.5283C61.4167 14.9912 61.0658 14.3646 60.8223 13.6484C60.5788 12.9323 60.457 12.1553 60.457 11.3174ZM62.4443 11.0703V11.3174C62.4443 11.8975 62.5124 12.4453 62.6484 12.9609C62.7845 13.4694 62.9886 13.9206 63.2607 14.3145C63.54 14.7083 63.8874 15.0199 64.3027 15.249C64.7181 15.471 65.2015 15.582 65.7529 15.582C66.2972 15.582 66.7734 15.471 67.1816 15.249C67.597 15.0199 67.9408 14.7083 68.2129 14.3145C68.485 13.9206 68.6891 13.4694 68.8252 12.9609C68.9684 12.4453 69.04 11.8975 69.04 11.3174V11.0703C69.04 10.4974 68.9684 9.95671 68.8252 9.44824C68.6891 8.93262 68.4814 8.47786 68.2021 8.08398C67.93 7.68294 67.5863 7.36784 67.1709 7.13867C66.7627 6.90951 66.2829 6.79492 65.7314 6.79492C65.1872 6.79492 64.7074 6.90951 64.292 7.13867C63.8838 7.36784 63.54 7.68294 63.2607 8.08398C62.9886 8.47786 62.7845 8.93262 62.6484 9.44824C62.5124 9.95671 62.4443 10.4974 62.4443 11.0703ZM88.7734 15.3135V17H80.9531V15.3135H88.7734ZM81.3613 1.35938V17H79.2881V1.35938H81.3613ZM93.0059 5.37695V17H91.0078V5.37695H93.0059ZM90.8574 2.29395C90.8574 1.97168 90.9541 1.69954 91.1475 1.47754C91.348 1.25553 91.6416 1.14453 92.0283 1.14453C92.4079 1.14453 92.6979 1.25553 92.8984 1.47754C93.1061 1.69954 93.21 1.97168 93.21 2.29395C93.21 2.60189 93.1061 2.86686 92.8984 3.08887C92.6979 3.30371 92.4079 3.41113 92.0283 3.41113C91.6416 3.41113 91.348 3.30371 91.1475 3.08887C90.9541 2.86686 90.8574 2.60189 90.8574 2.29395ZM96.1855 0.5H98.1836V14.7441L98.0117 17H96.1855V0.5ZM106.036 11.0918V11.3174C106.036 12.1624 105.936 12.9466 105.735 13.6699C105.535 14.3861 105.241 15.0091 104.854 15.5391C104.468 16.069 103.995 16.4808 103.437 16.7744C102.878 17.068 102.237 17.2148 101.514 17.2148C100.776 17.2148 100.128 17.0895 99.5693 16.8389C99.0179 16.5811 98.5524 16.2122 98.1729 15.7324C97.7933 15.2526 97.4889 14.6725 97.2598 13.9922C97.0378 13.3118 96.8838 12.5456 96.7979 11.6934V10.7051C96.8838 9.8457 97.0378 9.07585 97.2598 8.39551C97.4889 7.71517 97.7933 7.13509 98.1729 6.65527C98.5524 6.16829 99.0179 5.79948 99.5693 5.54883C100.121 5.29102 100.762 5.16211 101.492 5.16211C102.223 5.16211 102.871 5.30534 103.437 5.5918C104.002 5.87109 104.475 6.27214 104.854 6.79492C105.241 7.31771 105.535 7.94434 105.735 8.6748C105.936 9.39811 106.036 10.2038 106.036 11.0918ZM104.038 11.3174V11.0918C104.038 10.5117 103.984 9.96745 103.877 9.45898C103.77 8.94336 103.598 8.49219 103.361 8.10547C103.125 7.71159 102.813 7.40365 102.427 7.18164C102.04 6.95247 101.564 6.83789 100.998 6.83789C100.497 6.83789 100.06 6.92383 99.6875 7.0957C99.3223 7.26758 99.0107 7.50033 98.7529 7.79395C98.4951 8.0804 98.2839 8.40983 98.1191 8.78223C97.9616 9.14746 97.8434 9.52702 97.7646 9.9209V12.5098C97.8792 13.0111 98.0654 13.4945 98.3232 13.96C98.5882 14.4183 98.9391 14.7943 99.376 15.0879C99.82 15.3815 100.368 15.5283 101.02 15.5283C101.557 15.5283 102.015 15.4209 102.395 15.2061C102.781 14.984 103.093 14.6797 103.329 14.293C103.573 13.9062 103.752 13.4587 103.866 12.9502C103.981 12.4417 104.038 11.8975 104.038 11.3174ZM110.537 7.20312V17H108.55V5.37695H110.483L110.537 7.20312ZM114.168 5.3125L114.157 7.16016C113.993 7.12435 113.835 7.10286 113.685 7.0957C113.541 7.08138 113.377 7.07422 113.19 7.07422C112.732 7.07422 112.327 7.14583 111.977 7.28906C111.626 7.43229 111.328 7.63281 111.085 7.89062C110.841 8.14844 110.648 8.45638 110.505 8.81445C110.369 9.16536 110.279 9.55208 110.236 9.97461L109.678 10.2969C109.678 9.59505 109.746 8.9362 109.882 8.32031C110.025 7.70443 110.243 7.16016 110.537 6.6875C110.831 6.20768 111.203 5.83529 111.654 5.57031C112.113 5.29818 112.657 5.16211 113.287 5.16211C113.43 5.16211 113.595 5.18001 113.781 5.21582C113.967 5.24447 114.096 5.27669 114.168 5.3125ZM122.429 15.0127V9.0293C122.429 8.57096 122.336 8.1735 122.149 7.83691C121.97 7.49316 121.698 7.22819 121.333 7.04199C120.968 6.85579 120.517 6.7627 119.979 6.7627C119.478 6.7627 119.038 6.84863 118.658 7.02051C118.286 7.19238 117.992 7.41797 117.777 7.69727C117.57 7.97656 117.466 8.27734 117.466 8.59961H115.479C115.479 8.18424 115.586 7.77246 115.801 7.36426C116.016 6.95605 116.324 6.58724 116.725 6.25781C117.133 5.92122 117.62 5.65625 118.186 5.46289C118.758 5.26237 119.396 5.16211 120.098 5.16211C120.943 5.16211 121.688 5.30534 122.332 5.5918C122.984 5.87826 123.492 6.31152 123.857 6.8916C124.23 7.46452 124.416 8.18424 124.416 9.05078V14.4648C124.416 14.8516 124.448 15.2633 124.513 15.7002C124.584 16.137 124.688 16.513 124.824 16.8281V17H122.751C122.651 16.7708 122.572 16.4665 122.515 16.0869C122.457 15.7002 122.429 15.3421 122.429 15.0127ZM122.772 9.95312L122.794 11.3496H120.785C120.219 11.3496 119.715 11.3962 119.271 11.4893C118.826 11.5752 118.454 11.7077 118.153 11.8867C117.853 12.0658 117.623 12.2913 117.466 12.5635C117.308 12.8285 117.229 13.14 117.229 13.498C117.229 13.8633 117.312 14.1963 117.477 14.4971C117.641 14.7979 117.888 15.0378 118.218 15.2168C118.554 15.3887 118.966 15.4746 119.453 15.4746C120.062 15.4746 120.599 15.3457 121.064 15.0879C121.53 14.8301 121.899 14.515 122.171 14.1426C122.45 13.7702 122.601 13.4085 122.622 13.0576L123.471 14.0137C123.421 14.3145 123.285 14.6475 123.062 15.0127C122.84 15.3779 122.543 15.7288 122.171 16.0654C121.806 16.3949 121.369 16.6706 120.86 16.8926C120.359 17.1074 119.793 17.2148 119.163 17.2148C118.375 17.2148 117.684 17.0609 117.09 16.7529C116.503 16.445 116.044 16.0332 115.715 15.5176C115.393 14.9948 115.231 14.4111 115.231 13.7666C115.231 13.1436 115.353 12.5957 115.597 12.123C115.84 11.6432 116.191 11.2458 116.649 10.9307C117.108 10.6084 117.659 10.3649 118.304 10.2002C118.948 10.0355 119.668 9.95312 120.463 9.95312H122.772ZM129.529 7.20312V17H127.542V5.37695H129.476L129.529 7.20312ZM133.16 5.3125L133.149 7.16016C132.985 7.12435 132.827 7.10286 132.677 7.0957C132.534 7.08138 132.369 7.07422 132.183 7.07422C131.724 7.07422 131.32 7.14583 130.969 7.28906C130.618 7.43229 130.321 7.63281 130.077 7.89062C129.834 8.14844 129.64 8.45638 129.497 8.81445C129.361 9.16536 129.271 9.55208 129.229 9.97461L128.67 10.2969C128.67 9.59505 128.738 8.9362 128.874 8.32031C129.017 7.70443 129.236 7.16016 129.529 6.6875C129.823 6.20768 130.195 5.83529 130.646 5.57031C131.105 5.29818 131.649 5.16211 132.279 5.16211C132.423 5.16211 132.587 5.18001 132.773 5.21582C132.96 5.24447 133.089 5.27669 133.16 5.3125ZM138.456 15.7969L141.689 5.37695H143.816L139.154 18.7939C139.047 19.0804 138.904 19.3883 138.725 19.7178C138.553 20.0544 138.331 20.373 138.059 20.6738C137.786 20.9746 137.457 21.2181 137.07 21.4043C136.691 21.5977 136.236 21.6943 135.706 21.6943C135.549 21.6943 135.348 21.6729 135.104 21.6299C134.861 21.5869 134.689 21.5511 134.589 21.5225L134.578 19.9111C134.635 19.9183 134.725 19.9255 134.847 19.9326C134.976 19.9469 135.065 19.9541 135.115 19.9541C135.566 19.9541 135.95 19.8932 136.265 19.7715C136.58 19.6569 136.845 19.46 137.06 19.1807C137.282 18.9085 137.471 18.5326 137.629 18.0527L138.456 15.7969ZM136.082 5.37695L139.101 14.4004L139.616 16.4951L138.188 17.2256L133.912 5.37695H136.082Z" fill="#969FA9"/>
</svg>
